<svg xmlns="http://www.w3.org/2000/svg" version="1.1" xmlns:xlink="http://www.w3.org/1999/xlink" xmlns:svgjs="http://svgjs.dev/svgjs" width="1500" height="1500" viewBox="0 0 1500 1500"><rect width="1500" height="1500" fill="#000000"></rect><g transform="matrix(0.6666666666666666,0,0,0.6666666666666666,250.8681398737251,315.68529014844813)"><svg viewBox="0 0 284 247" data-background-color="#ffffff" preserveAspectRatio="xMidYMid meet" height="1304" width="1500" xmlns="http://www.w3.org/2000/svg" xmlns:xlink="http://www.w3.org/1999/xlink"><g id="tight-bounds" transform="matrix(1,0,0,1,-0.24655172413793025,-0.09999999999999432)"><svg viewBox="0 0 284.49310344827586 247.2" height="247.2" width="284.49310344827586"><g><svg viewBox="0 0 284.49310344827586 247.2" height="247.2" width="284.49310344827586"><g><svg viewBox="0 0 284.49310344827586 247.2" height="247.2" width="284.49310344827586"><g id="textblocktransform"><svg viewBox="0 0 284.49310344827586 247.2" height="247.2" width="284.49310344827586" id="textblock"><g><svg viewBox="0 0 284.49310344827586 247.2" height="247.2" width="284.49310344827586"><g transform="matrix(1,0,0,1,0,0)"><svg width="284.49310344827586" viewBox="2 -34.8 40.05 34.8" height="247.2" data-palette-color="#000000"><path d="M7.85 0L2.2 0Q2 0 2-0.25L2-0.25 2.1-34.55Q2.1-34.8 2.3-34.8L2.3-34.8 7.9-34.8Q8.1-34.8 8.1-34.55L8.1-34.55 8.1-22.7 15.95-34.6Q16.1-34.8 16.3-34.8L16.3-34.8 22.05-34.8Q22.25-34.8 22.15-34.6L22.15-34.6 13.5-20.8 23.2-0.2Q23.3 0 22.95 0L22.95 0 16.85 0Q16.6 0 16.55-0.2L16.55-0.2 9.8-14.9 8.05-12.15 8.05-0.25Q8.05 0 7.85 0L7.85 0ZM41.8 0L25.65 0Q25.45 0 25.45-0.25L25.45-0.25 25.5-34.55Q25.5-34.8 25.75-34.8L25.75-34.8 31.3-34.8Q31.55-34.8 31.55-34.55L31.55-34.55 31.5-6.15 41.8-6.15Q42.05-6.15 42.05-5.9L42.05-5.9 42.05-0.25Q42.05 0 41.8 0L41.8 0Z" opacity="1" transform="matrix(1,0,0,1,0,0)" fill="#ffffff" class="wordmark-text-0" data-fill-palette-color="primary" id="text-0"></path></svg></g></svg></g></svg></g></svg></g><g></g></svg></g><defs></defs></svg><rect width="284.49310344827586" height="247.2" fill="none" stroke="none" visibility="hidden"></rect></g></svg></g></svg>